<svg xmlns="http://www.w3.org/2000/svg" viewBox="0 0 24 24"><defs><style>.cls-1{fill:#1d1d1b;}</style></defs><g id="Camada_2" data-name="Camada 2"><g id="Camada_1-2" data-name="Camada 1"><g id="Camada_2-2" data-name="Camada 2"><g id="Camada_1-2-2" data-name="Camada 1-2"><path class="cls-1" d="M19.32,1.24a2.29,2.29,0,0,1,3.21.23,2.29,2.29,0,0,1,.23,3.21L5.39,22.06h0L1,23.24a.21.21,0,0,1-.25-.15.17.17,0,0,1,0-.1l1.15-4.32A.24.24,0,0,1,2,18.58ZM2.16,22.1l2.14-.59a.2.2,0,0,0,.09-.35L2.83,19.61a.22.22,0,0,0-.3,0,.31.31,0,0,0,0,.1l-.57,2.14a.21.21,0,0,0,.14.26ZM22.05,3.81a.21.21,0,0,0,.29,0l0,0a1.51,1.51,0,0,0-.3-1.85,1.51,1.51,0,0,0-1.85-.3.22.22,0,0,0-.06.29l0,0Z"/><polygon class="cls-1" points="10.7 8.39 10.01 7.7 11.24 6.47 10.62 5.84 8.51 7.95 7.75 7.2 9.86 5.09 9.23 4.46 8 5.7 7.24 4.94 8.48 3.71 7.85 3.08 5.74 5.18 4.99 4.43 7.09 2.32 6.46 1.7 5.23 2.93 4.48 2.17 5.71 0.94 4.77 0 0 4.77 7.16 11.93 10.7 8.39"/><polygon class="cls-1" points="21.83 19.53 21.07 18.77 22.31 17.54 21.68 16.91 19.57 19.02 18.82 18.26 20.92 16.15 20.3 15.52 19.06 16.76 18.3 16 19.54 14.77 18.91 14.14 16.81 16.25 16.05 15.49 18.16 13.38 17.53 12.76 16.3 13.99 15.61 13.3 12.07 16.84 19.23 24 24 19.23 23.06 18.29 21.83 19.53"/></g></g></g></g></svg>